<?xml version="1.0" encoding="UTF-8"?>
<svg id="Layer_1" data-name="Layer 1" xmlns="http://www.w3.org/2000/svg" viewBox="0 0 132.8 147.56">
  <defs>
    <style>
      .cls-1 {
      fill: #35b648;
      stroke-width: 0px;
      }
    </style>
  </defs>
  <path class="cls-1" d="M0,147.56V0h67.24c13.49,0,25.15,2.18,34.99,6.53,9.84,4.36,17.39,10.64,22.66,18.87,5.27,8.22,7.9,17.89,7.9,28.98s-2.63,21.12-7.9,29.2c-5.27,8.08-12.83,14.33-22.66,18.76-9.84,4.43-21.5,6.64-34.99,6.64H22.98l18.76-18.34v56.92H0ZM41.74,95.49l-18.76-19.6h41.74c8.71,0,15.25-1.86,19.61-5.59,4.35-3.72,6.53-9.03,6.53-15.92s-2.18-11.84-6.53-15.7c-4.36-3.86-10.89-5.8-19.61-5.8H22.98l18.76-19.18v81.79Z"/>
</svg>
